<?xml version="1.0" encoding="UTF-8" standalone="no"?>
<svg
   xmlns:dc="http://purl.org/dc/elements/1.1/"
   xmlns:cc="http://creativecommons.org/ns#"
   xmlns:rdf="http://www.w3.org/1999/02/22-rdf-syntax-ns#"
   xmlns:svg="http://www.w3.org/2000/svg"
   xmlns="http://www.w3.org/2000/svg"
   xmlns:xlink="http://www.w3.org/1999/xlink"
   viewBox="0 0 429.29999 429.29999"
   height="429.29999"
   width="429.29999"
   version="1.1"
   id="svg9605">
  <metadata
     id="metadata9611">
    <rdf:RDF>
      <cc:Work
         rdf:about="">
        <dc:format>image/svg+xml</dc:format>
        <dc:type
           rdf:resource="http://purl.org/dc/dcmitype/StillImage" />
        <dc:title></dc:title>
      </cc:Work>
    </rdf:RDF>
  </metadata>
  <defs
     id="defs9609">
    <linearGradient
       id="linearGradient11453">
      <stop
         id="stop11455"
         offset="0"
         style="stop-color:#e7ff22;stop-opacity:0.76126128" />
      <stop
         id="stop11457"
         offset="1"
         style="stop-color:#ff2222;stop-opacity:0.97297299" />
    </linearGradient>
    <linearGradient
       gradientUnits="userSpaceOnUse"
       y2="106.22092"
       x2="249.26547"
       y1="230.82706"
       x1="150.93411"
       id="linearGradient11459"
       xlink:href="#linearGradient11453" />
  </defs>
  <g
     style="display:inline"
     id="layer2">
    <path
       id="path11311"
       d="M 77.176508,332.82935 217.3805,389.10389 370.79166,214.75843 229.58118,158.89688 Z"
       style="fill:#977133;fill-opacity:1;fill-rule:evenodd;stroke:#000000;stroke-width:6;stroke-linecap:round;stroke-linejoin:round;stroke-miterlimit:4;stroke-dasharray:none;stroke-opacity:1" />
    <path
       style="fill:#e9cd74;fill-opacity:1;fill-rule:evenodd;stroke:#000000;stroke-width:6;stroke-linecap:round;stroke-linejoin:round;stroke-miterlimit:4;stroke-dasharray:none;stroke-opacity:1"
       d="m 294.81367,233.30639 33.25479,-36.76445 44.88642,17.47032 -32.96079,36.98041 z"
       id="path11469" />
    <path
       id="path11467"
       d="m 172.84322,371.82937 33.25479,-36.76445 44.88642,17.47032 -32.96079,36.98041 z"
       style="fill:#e9cd74;fill-opacity:1;fill-rule:evenodd;stroke:#000000;stroke-width:6;stroke-linecap:round;stroke-linejoin:round;stroke-miterlimit:4;stroke-dasharray:none;stroke-opacity:1" />
    <path
       id="path11323"
       d="M 195.86371,363.60203 228.32986,378.96176 363.4003,223.09164 304.8472,198.89595"
       style="fill:#000000;fill-opacity:0.18468468;fill-rule:evenodd;stroke:none;stroke-width:1px;stroke-linecap:butt;stroke-linejoin:miter;stroke-opacity:1" />
    <path
       id="path11273"
       d="m 78.026137,333.17377 c -5.816443,1.38819 -23.668805,-27.05715 -15.220157,-92.97631 10.384122,-16.74135 46.28806,-37.17894 52.25885,-39.57696 -5.45943,-4.71124 18.69077,36.54997 21.94862,69.7899 z"
       style="fill:#61502b;fill-opacity:1;fill-rule:evenodd;stroke:#000000;stroke-width:6;stroke-linecap:round;stroke-linejoin:round;stroke-miterlimit:4;stroke-dasharray:none;stroke-opacity:1" />
    <path
       id="path11277"
       d="M 215.50626,369.3274 348.80125,218.31855 350.50998,131.5273 212.87854,255.00971 Z"
       style="fill:#dedede;fill-rule:evenodd;stroke:#000000;stroke-width:6;stroke-linecap:round;stroke-linejoin:round;stroke-miterlimit:4;stroke-dasharray:none;stroke-opacity:1;fill-opacity:1" />
    <path
       id="path11288"
       d="M 215.45108,369.48819 216.09422,258.86853 87.466709,210.63321 88.431416,319.64503 Z"
       style="fill:#ffffff;fill-rule:evenodd;stroke:#000000;stroke-width:6;stroke-linecap:round;stroke-linejoin:round;stroke-miterlimit:4;stroke-dasharray:none;stroke-opacity:1" />
    <path
       id="path11271"
       d="m 107.40398,223.49596 c 40.62533,7.88297 118.41059,47.51109 118.41059,46.65032 L 360.15704,118.0214 C 344.04765,84.813824 255.85311,75.459633 219.23188,84.656277 150.57665,103.29274 73.421131,181.78931 62.348678,241.73453 73.96415,227.47018 92.252567,220.55597 107.40398,223.49596 Z"
       style="opacity:0.98999999;fill:#977133;fill-opacity:1;fill-rule:evenodd;stroke:#000000;stroke-width:6;stroke-linecap:round;stroke-linejoin:round;stroke-miterlimit:4;stroke-dasharray:none;stroke-opacity:1" />
    <path
       id="path11317"
       d="m 290.80652,218.61484 -75.76518,85.66631 -70.34568,-27.65033"
       style="fill:none;fill-rule:evenodd;stroke:#000000;stroke-width:6;stroke-linecap:round;stroke-linejoin:round;stroke-miterlimit:4;stroke-dasharray:none;stroke-opacity:1" />
    <path
       id="path11319"
       d="m 331.84438,202.65367 -54.24464,61.33344"
       style="fill:none;fill-rule:evenodd;stroke:#000000;stroke-width:6;stroke-linecap:round;stroke-linejoin:round;stroke-miterlimit:4;stroke-dasharray:none;stroke-opacity:1" />
    <path
       id="path11321"
       d="m 154.22303,318.15161 61.79127,24.28789 22.39213,-25.31837"
       style="fill:none;fill-rule:evenodd;stroke:#000000;stroke-width:6;stroke-linecap:round;stroke-linejoin:round;stroke-miterlimit:4;stroke-dasharray:none;stroke-opacity:1" />
    <path
       id="path11325"
       d="m 180.07852,120.59395 c -3.79589,10.92751 -10.28316,21.1064 -18.65123,32.25292 -8.24886,10.98771 -26.03601,23.16553 -48.87822,42.35104 16.84813,-28.81075 38.48906,-55.98685 67.52945,-74.60396 z"
       style="fill:#000000;fill-opacity:0.15315318;fill-rule:evenodd;stroke:none;stroke-width:1px;stroke-linecap:butt;stroke-linejoin:miter;stroke-opacity:1" />
    <path
       id="path11333"
       d="m 318.3531,106.44492 c -3.79589,10.92751 -26.3616,35.89856 -34.72967,47.04508 -8.24886,10.98771 -26.60112,39.60178 -50.80763,48.78242 10.63792,-18.19113 28.96567,-43.97183 46.27174,-64.93089 8.87301,-10.74593 28.5613,-21.2812 39.26556,-30.89661 z"
       style="fill:#000000;fill-opacity:0.15315318;fill-rule:evenodd;stroke:none;stroke-width:1px;stroke-linecap:butt;stroke-linejoin:miter;stroke-opacity:1" />
    <path
       id="path11337"
       d="m 211.01186,119.14894 c 0,0 30.48082,-19.38896 42.29332,-32.743222 8.64672,-9.775285 7.64444,-29.478878 20.00975,-33.652754 9.60157,-3.240984 24.98763,1.076548 28.19555,11.369173 4.50845,14.465371 -24.08219,17.833315 -18.19068,35.926593 5.44954,16.73596 -21.28038,38.04916 -23.64788,37.74565"
       style="fill:#977133;fill-opacity:1;fill-rule:evenodd;stroke:#000000;stroke-width:6;stroke-linecap:round;stroke-linejoin:round;stroke-miterlimit:4;stroke-dasharray:none;stroke-opacity:1" />
    <path
       style="fill:#000000;fill-opacity:0.15315318;fill-rule:evenodd;stroke:none;stroke-width:1px;stroke-linecap:butt;stroke-linejoin:miter;stroke-opacity:1"
       d="m 252.17456,116.07305 c -3.79589,10.92751 -18.12257,25.58463 -26.43351,36.77381 -10.44495,14.06224 -43.01904,50.42654 -56.82995,56.96823 8.56343,-14.64369 21.96498,-36.91169 37.92221,-55.35716 7.60627,-8.79233 12.30119,-10.94838 21.3828,-19.7984 9.35062,-9.11218 16.71425,-13.9424 23.95845,-18.58648 z"
       id="path11331" />
    <path
       id="path11449"
       d="m 276.13643,72.762709 c 0,0 3.37201,-15.215695 0.91426,-22.203525 -4.28425,-12.180974 -25.47168,-29.185138 -25.47168,-29.185138 0,0 -4.88161,28.511811 2.27857,39.644777 4.54107,7.060645 22.27885,11.743886 22.27885,11.743886 z"
       style="fill:#64e464;fill-opacity:1;fill-rule:evenodd;stroke:#000000;stroke-width:6;stroke-linecap:round;stroke-linejoin:round;stroke-miterlimit:4;stroke-dasharray:none;stroke-opacity:1" />
    <path
       id="path11451"
       d="m 125.97044,224.65487 c 0,0 -1.47443,-28.0943 0.90954,-41.83856 2.62156,-15.11405 5.05299,-31.61331 14.55254,-43.65763 11.72206,-14.86221 31.61947,-20.89308 48.20529,-30.01462 11.94113,-6.56714 36.83612,-17.735906 36.83612,-17.735906 0,0 -18.80707,13.022206 -28.19555,19.554976 -16.08566,11.19286 -36.478,17.95246 -48.20529,33.65276 -7.74546,10.36949 -13.75167,23.97731 -12.27871,36.83612 0.62725,5.47586 3.18347,13.32411 8.64057,14.09777 6.90569,0.97903 12.13856,-7.96579 15.46208,-14.09777 3.5863,-6.61682 1.61284,-15.035 3.63813,-22.28358 2.94667,-10.54622 5.16826,-22.1419 12.27871,-30.46939 10.90532,-12.77188 43.20286,-25.92171 43.20286,-25.92171 0,0 -14.3596,14.51556 -22.28358,20.91928 -5.59255,4.51958 -13.71352,6.31853 -17.73591,12.2787 -5.38994,7.98652 -14.56564,23.13451 -6.36674,28.19555 16.6815,10.29719 31.43411,-23.61207 45.4767,-37.29089 5.31188,-5.17428 14.55254,-16.82637 14.55254,-16.82637 0,0 -5.16346,14.63317 -9.55011,20.91928 -12.57511,18.02023 -31.44634,30.70608 -46.84099,46.38622 -6.45992,6.57971 -17.12162,11.00374 -19.10021,20.00975 -1.30639,5.94633 0.0171,15.75946 5.91197,17.28114 10.49538,2.70921 15.72301,-14.95317 24.10265,-21.82881 9.04713,-7.42332 20.09984,-12.46851 28.19555,-20.91928 7.85301,-8.19742 12.1951,-19.18517 19.10021,-28.19555 8.04111,-10.49273 25.92171,-30.01461 25.92171,-30.01461 0,0 -10.8713,22.99147 -17.73591,33.65275 -7.37036,11.44675 -15.46101,22.58662 -25.01218,32.28845 -5.44765,5.53359 -12.89663,8.87183 -18.19068,14.55254 -5.27485,5.66011 -12.8589,11.37024 -13.18824,19.10021 -0.10405,2.44208 1.46555,5.24671 3.63814,6.36674 4.06231,2.09422 9.48818,0.53977 13.64301,-1.3643 11.40474,-5.22653 20.37078,-15.45443 27.28601,-25.92172 4.54764,-6.88356 5.48655,-15.56969 8.64057,-23.19311 3.63071,-8.77561 11.82394,-25.92172 11.82394,-25.92172 0,0 -0.92653,13.22502 -2.7286,19.55498 -1.95125,6.85396 -9.44922,12.47471 -8.64057,19.55498 0.25802,2.25915 1.83407,5.19639 4.0929,5.4572 7.26892,0.83928 11.86391,-8.72046 16.82638,-14.09777 11.72398,-12.70406 22.70614,-26.6271 30.01462,-42.29333 4.30579,-9.22975 7.73104,-29.55985 7.73104,-29.55985 0,0 1.91253,18.80593 -0.68215,29.10509 -3.19732,12.6912 -29.19541,44.37052 -48.88745,62.30307 -11.11851,10.12507 -28.57942,14.16513 -35.92659,27.28601 -1.48864,2.65849 -3.13338,7.01254 -0.90953,9.09534 1.346,1.26063 3.77159,-0.16145 5.4572,-0.90953 19.1831,-8.51352 34.18465,-24.59377 49.34221,-39.10996 8.61531,-8.25077 23.4205,-27.05863 23.4205,-27.05863 0,0 -10.30698,19.51252 -17.50853,27.74078 -16.5856,18.9502 -35.19523,37.71262 -57.98278,48.43268 -11.64925,5.48021 -37.97304,7.04889 -37.97304,7.04889 z"
       style="fill:url(#linearGradient11459);fill-opacity:1;fill-rule:evenodd;stroke:none;stroke-width:1px;stroke-linecap:butt;stroke-linejoin:miter;stroke-opacity:1" />
    <path
       id="path11465"
       d="m 268.42619,135.06578 c 10.02125,-13.23337 80.67369,-31.7941 15.84493,-47.058912 3.81345,39.059892 -14.64247,29.622212 -15.84493,47.058912 z"
       style="fill:#000000;fill-opacity:0.25675677;fill-rule:evenodd;stroke:none;stroke-width:1px;stroke-linecap:butt;stroke-linejoin:miter;stroke-opacity:1" />
    <path
       style="fill:#e9cd74;fill-opacity:1;fill-rule:evenodd;stroke:#000000;stroke-width:6;stroke-linecap:round;stroke-linejoin:round;stroke-miterlimit:4;stroke-dasharray:none;stroke-opacity:1"
       d="m 180.47879,251.78632 16.44911,-15.10518 22.59392,9.69369 18.31913,-20.4335 21.10062,8.64106 -34.2975,38.32186 c -19.81631,-11.79464 -35.88273,-19.57332 -44.16528,-21.11793 z"
       id="path11473" />
    <path
       id="path11461"
       d="m 102.50408,284.55659 36.80853,14.46809"
       style="fill:none;fill-rule:evenodd;stroke:#000000;stroke-width:6;stroke-linecap:round;stroke-linejoin:round;stroke-opacity:1;stroke-miterlimit:4;stroke-dasharray:none" />
    <path
       id="path11463"
       d="m 112.20574,288.36884 c -16.313479,12.6164 -23.287333,34.28625 -24.920438,41.8309 l 18.632458,-10.24442 12.31248,22.7713 c 1.33719,-12.70002 -3.70186,-29.33546 11.52289,-47.07675 z"
       style="fill:#ff0000;fill-rule:evenodd;stroke:#000000;stroke-width:1px;stroke-linecap:butt;stroke-linejoin:miter;stroke-opacity:1" />
    <path
       id="path11471"
       d="M 336.88874,119.35218 314.7631,107.50737 324.91267,92.046423 c 14.43555,3.618693 27.83036,13.672597 38.39652,24.250847 l -30.65128,35.34498 -16.14339,-11.48631 z"
       style="fill:#e9cd74;fill-opacity:1;fill-rule:evenodd;stroke:#000000;stroke-width:6;stroke-linecap:round;stroke-linejoin:round;stroke-miterlimit:4;stroke-dasharray:none;stroke-opacity:1" />
    <path
       d="m 186.73288,368.26446 a 1.9208835,1.3899683 0 0 1 2.04954,-1.28837 1.9208835,1.3899683 0 0 1 1.78294,1.48151 1.9208835,1.3899683 0 0 1 -2.04525,1.29194 1.9208835,1.3899683 0 0 1 -1.78787,-1.4784"
       id="path11475"
       style="opacity:0.98999999;fill:#b39539;fill-opacity:1;stroke:#5f4e1b;stroke-width:4.82814121;stroke-linecap:round;stroke-linejoin:round;stroke-miterlimit:4;stroke-dasharray:none;stroke-dashoffset:0;stroke-opacity:1" />
    <path
       style="opacity:0.98999999;fill:#b39539;fill-opacity:1;stroke:#5f4e1b;stroke-width:4.82814121;stroke-linecap:round;stroke-linejoin:round;stroke-miterlimit:4;stroke-dasharray:none;stroke-dashoffset:0;stroke-opacity:1"
       id="path11479"
       d="m 235.61133,355.72329 a 1.9208835,1.3899683 0 0 1 2.04953,-1.28837 1.9208835,1.3899683 0 0 1 1.78295,1.48152 1.9208835,1.3899683 0 0 1 -2.04525,1.29193 1.9208835,1.3899683 0 0 1 -1.78787,-1.4784" />
    <path
       d="m 196.37994,247.67617 a 1.9208835,1.3899683 0 0 1 2.04954,-1.28837 1.9208835,1.3899683 0 0 1 1.78294,1.48152 1.9208835,1.3899683 0 0 1 -2.04524,1.29193 1.9208835,1.3899683 0 0 1 -1.78787,-1.4784"
       id="path11481"
       style="opacity:0.98999999;fill:#b39539;fill-opacity:1;stroke:#5f4e1b;stroke-width:4.82814121;stroke-linecap:round;stroke-linejoin:round;stroke-miterlimit:4;stroke-dasharray:none;stroke-dashoffset:0;stroke-opacity:1" />
    <path
       style="opacity:0.98999999;fill:#b39539;fill-opacity:1;stroke:#5f4e1b;stroke-width:4.82814121;stroke-linecap:round;stroke-linejoin:round;stroke-miterlimit:4;stroke-dasharray:none;stroke-dashoffset:0;stroke-opacity:1"
       id="path11483"
       d="m 238.90065,237.33022 a 1.9208835,1.3899683 0 0 1 2.04954,-1.28836 1.9208835,1.3899683 0 0 1 1.78294,1.48151 1.9208835,1.3899683 0 0 1 -2.04525,1.29193 1.9208835,1.3899683 0 0 1 -1.78786,-1.4784" />
    <path
       d="m 221.16473,257.33996 a 1.9208835,1.3899683 0 0 1 2.04954,-1.28837 1.9208835,1.3899683 0 0 1 1.78294,1.48151 1.9208835,1.3899683 0 0 1 -2.04524,1.29194 1.9208835,1.3899683 0 0 1 -1.78787,-1.4784"
       id="path11485"
       style="opacity:0.98999999;fill:#b39539;fill-opacity:1;stroke:#5f4e1b;stroke-width:4.82814121;stroke-linecap:round;stroke-linejoin:round;stroke-miterlimit:4;stroke-dasharray:none;stroke-dashoffset:0;stroke-opacity:1" />
    <path
       style="opacity:0.98999999;fill:#b39539;fill-opacity:1;stroke:#5f4e1b;stroke-width:4.82814121;stroke-linecap:round;stroke-linejoin:round;stroke-miterlimit:4;stroke-dasharray:none;stroke-dashoffset:0;stroke-opacity:1"
       id="path11487"
       d="m 212.97892,377.39843 a 1.9208835,1.3899683 0 0 1 2.04954,-1.28837 1.9208835,1.3899683 0 0 1 1.78295,1.48152 1.9208835,1.3899683 0 0 1 -2.04525,1.29193 1.9208835,1.3899683 0 0 1 -1.78787,-1.4784" />
    <path
       d="m 336.90292,240.62728 a 1.9208835,1.3899683 0 0 1 2.04954,-1.28836 1.9208835,1.3899683 0 0 1 1.78294,1.48151 1.9208835,1.3899683 0 0 1 -2.04524,1.29193 1.9208835,1.3899683 0 0 1 -1.78787,-1.4784"
       id="path11489"
       style="opacity:0.98999999;fill:#b39539;fill-opacity:1;stroke:#5f4e1b;stroke-width:4.82814121;stroke-linecap:round;stroke-linejoin:round;stroke-miterlimit:4;stroke-dasharray:none;stroke-dashoffset:0;stroke-opacity:1" />
    <path
       style="opacity:0.98999999;fill:#b39539;fill-opacity:1;stroke:#5f4e1b;stroke-width:4.82814121;stroke-linecap:round;stroke-linejoin:round;stroke-miterlimit:4;stroke-dasharray:none;stroke-dashoffset:0;stroke-opacity:1"
       id="path11491"
       d="m 356.68527,217.32047 a 1.9208835,1.3899683 0 0 1 2.04954,-1.28836 1.9208835,1.3899683 0 0 1 1.78294,1.48151 1.9208835,1.3899683 0 0 1 -2.04524,1.29193 1.9208835,1.3899683 0 0 1 -1.78787,-1.4784" />
    <path
       d="m 329.39926,137.73626 a 1.9208835,1.3899683 0 0 1 2.04954,-1.28837 1.9208835,1.3899683 0 0 1 1.78294,1.48152 1.9208835,1.3899683 0 0 1 -2.04524,1.29193 1.9208835,1.3899683 0 0 1 -1.78787,-1.4784"
       id="path11493"
       style="opacity:0.98999999;fill:#b39539;fill-opacity:1;stroke:#5f4e1b;stroke-width:4.82814121;stroke-linecap:round;stroke-linejoin:round;stroke-miterlimit:4;stroke-dasharray:none;stroke-dashoffset:0;stroke-opacity:1" />
    <path
       style="opacity:0.98999999;fill:#b39539;fill-opacity:1;stroke:#5f4e1b;stroke-width:4.82814121;stroke-linecap:round;stroke-linejoin:round;stroke-miterlimit:4;stroke-dasharray:none;stroke-dashoffset:0;stroke-opacity:1"
       id="path11495"
       d="m 348.49948,117.72652 a 1.9208835,1.3899683 0 0 1 2.04954,-1.28837 1.9208835,1.3899683 0 0 1 1.78294,1.48151 1.9208835,1.3899683 0 0 1 -2.04525,1.29194 1.9208835,1.3899683 0 0 1 -1.78786,-1.4784" />
    <path
       d="m 326.67065,102.71921 a 1.9208835,1.3899683 0 0 1 2.04954,-1.28837 1.9208835,1.3899683 0 0 1 1.78294,1.48151 1.9208835,1.3899683 0 0 1 -2.04524,1.29194 1.9208835,1.3899683 0 0 1 -1.78787,-1.4784"
       id="path11497"
       style="opacity:0.98999999;fill:#b39539;fill-opacity:1;stroke:#5f4e1b;stroke-width:4.82814121;stroke-linecap:round;stroke-linejoin:round;stroke-miterlimit:4;stroke-dasharray:none;stroke-dashoffset:0;stroke-opacity:1" />
  </g>
</svg>
